<!DOCTYPE svg PUBLIC "-//W3C//DTD SVG 20010904//EN" "http://www.w3.org/TR/2001/REC-SVG-20010904/DTD/svg10.dtd">
<svg version="1.0" xmlns="http://www.w3.org/2000/svg" width="127px" height="23px" viewBox="0 0 1270 230" preserveAspectRatio="xMidYMid meet">
<g id="layer101" fill="#4bcaff" stroke="none">
 <path d="M393 223 c-40 -8 -53 -40 -53 -130 0 -81 1 -83 24 -83 23 0 24 4 28 75 4 80 14 101 47 90 19 -6 21 -14 21 -86 l0 -79 30 0 30 0 0 79 c0 69 -3 84 -22 105 -23 26 -65 38 -105 29z"/>
 <path d="M943 220 c-16 -6 -23 -18 -23 -36 0 -21 3 -25 18 -18 25 11 66 11 71 -1 2 -5 -15 -20 -37 -33 -71 -40 -64 -112 13 -126 49 -10 75 0 75 28 0 20 -5 23 -32 22 -48 -2 -48 16 0 42 38 21 42 27 42 62 0 20 -6 42 -13 48 -19 16 -88 23 -114 12z"/>
 <path d="M0 115 l0 -105 64 0 c45 0 69 5 80 16 19 19 21 49 3 65 -11 11 -10 16 6 32 13 13 17 26 12 45 -9 40 -32 52 -102 52 l-63 0 0 -105z m105 55 c8 -13 -13 -40 -31 -40 -8 0 -14 10 -14 25 0 18 5 25 19 25 11 0 23 -5 26 -10z m-10 -100 c0 -8 -8 -16 -17 -18 -13 -2 -18 3 -18 18 0 15 5 20 18 18 9 -2 17 -10 17 -18z"/>
 <path d="M190 115 l0 -105 30 0 30 0 0 85 0 85 35 0 c28 0 35 4 35 20 0 18 -7 20 -65 20 l-65 0 0 -105z"/>
 <path d="M560 115 l0 -105 65 0 c58 0 65 2 65 20 0 17 -7 20 -40 20 -33 0 -40 3 -40 20 0 16 7 20 35 20 31 0 35 3 35 25 0 22 -4 25 -35 25 -28 0 -35 4 -35 20 0 17 7 20 40 20 33 0 40 3 40 20 0 18 -7 20 -65 20 l-65 0 0 -105z"/>
 <path d="M702 208 c3 -7 20 -55 38 -106 32 -91 33 -92 65 -92 32 0 34 2 63 83 49 135 48 127 13 127 -21 0 -32 -6 -36 -20 -5 -15 -15 -20 -40 -20 -25 0 -35 5 -40 20 -5 14 -15 20 -37 20 -20 0 -29 -4 -26 -12z m114 -100 c-3 -13 -6 -27 -7 -33 -1 -12 -17 25 -18 43 -1 6 6 12 15 12 12 0 15 -6 10 -22z"/>
 <path d="M1140 180 c0 -25 -11 -63 -30 -100 -16 -33 -30 -62 -30 -65 0 -3 13 -5 30 -5 25 0 32 6 47 42 l19 41 13 -41 c13 -38 17 -42 48 -42 l33 0 -35 70 c-20 40 -35 84 -35 105 0 32 -2 35 -30 35 -28 0 -30 -2 -30 -40z"/>
 </g>
<g id="layer102" fill="#ffffff" stroke="none">
 <path d="M393 223 c-40 -8 -53 -40 -53 -130 0 -81 1 -83 24 -83 23 0 24 4 28 75 4 80 14 101 47 90 19 -6 21 -14 21 -86 l0 -79 30 0 30 0 0 79 c0 69 -3 84 -22 105 -23 26 -65 38 -105 29z"/>
 <path d="M943 220 c-16 -6 -23 -18 -23 -36 0 -21 3 -25 18 -18 25 11 66 11 71 -1 2 -5 -15 -20 -37 -33 -71 -40 -64 -112 13 -126 49 -10 75 0 75 28 0 20 -5 23 -32 22 -48 -2 -48 16 0 42 38 21 42 27 42 62 0 20 -6 42 -13 48 -19 16 -88 23 -114 12z"/>
 <path d="M0 115 l0 -105 64 0 c45 0 69 5 80 16 19 19 21 49 3 65 -11 11 -10 16 6 32 13 13 17 26 12 45 -9 40 -32 52 -102 52 l-63 0 0 -105z m105 55 c8 -13 -13 -40 -31 -40 -8 0 -14 10 -14 25 0 18 5 25 19 25 11 0 23 -5 26 -10z m-10 -100 c0 -8 -8 -16 -17 -18 -13 -2 -18 3 -18 18 0 15 5 20 18 18 9 -2 17 -10 17 -18z"/>
 <path d="M190 115 l0 -105 30 0 30 0 0 85 0 85 35 0 c28 0 35 4 35 20 0 18 -7 20 -65 20 l-65 0 0 -105z"/>
 <path d="M702 208 c3 -7 20 -55 38 -106 32 -91 33 -92 65 -92 32 0 34 2 63 83 49 135 48 127 13 127 -21 0 -32 -6 -36 -20 -5 -15 -15 -20 -40 -20 -25 0 -35 5 -40 20 -5 14 -15 20 -37 20 -20 0 -29 -4 -26 -12z m114 -100 c-3 -13 -6 -27 -7 -33 -1 -12 -17 25 -18 43 -1 6 6 12 15 12 12 0 15 -6 10 -22z"/>
 <path d="M1140 180 c0 -25 -11 -63 -30 -100 -16 -33 -30 -62 -30 -65 0 -3 13 -5 30 -5 25 0 32 6 47 42 l19 41 13 -41 c13 -38 17 -42 48 -42 l33 0 -35 70 c-20 40 -35 84 -35 105 0 32 -2 35 -30 35 -28 0 -30 -2 -30 -40z"/>
 </g>

</svg>