<!DOCTYPE svg PUBLIC "-//W3C//DTD SVG 20010904//EN" "http://www.w3.org/TR/2001/REC-SVG-20010904/DTD/svg10.dtd">
<svg version="1.0" xmlns="http://www.w3.org/2000/svg" width="34px" height="48px" viewBox="0 0 340 480" preserveAspectRatio="xMidYMid meet">
<g id="layer101" fill="#ffffff" stroke="none">
 <path d="M27 398 c-4 -46 -7 -116 -7 -155 0 -42 -4 -73 -10 -73 -6 0 -10 -27 -10 -60 0 -33 4 -60 10 -60 5 0 12 -11 16 -25 l6 -25 134 0 c134 0 134 0 146 25 6 14 15 25 20 25 4 0 8 27 8 60 0 33 -4 60 -9 60 -4 0 -12 69 -17 153 l-9 152 -136 3 -136 3 -6 -83z m243 43 c0 -5 3 -23 6 -40 l6 -31 -111 0 -111 0 0 40 0 40 105 0 c58 0 105 -4 105 -9z m10 -135 c0 -13 3 -31 6 -40 5 -14 -8 -16 -113 -16 l-119 0 4 40 4 40 109 0 c109 0 109 0 109 -24z m10 -116 c0 -19 -7 -20 -120 -20 -113 0 -120 1 -120 20 0 19 7 20 120 20 113 0 120 -1 120 -20z m20 -80 c0 -19 -7 -20 -140 -20 -133 0 -140 1 -140 20 0 19 7 20 140 20 133 0 140 -1 140 -20z m-30 -70 c0 -6 -43 -10 -110 -10 -67 0 -110 4 -110 10 0 6 43 10 110 10 67 0 110 -4 110 -10z"/>
 <path d="M125 300 c-11 -19 6 -30 46 -30 32 0 39 3 39 20 0 17 -7 20 -39 20 -22 0 -43 -4 -46 -10z"/>
 </g>

</svg>