<!DOCTYPE svg PUBLIC "-//W3C//DTD SVG 20010904//EN" "http://www.w3.org/TR/2001/REC-SVG-20010904/DTD/svg10.dtd">
<svg version="1.0" xmlns="http://www.w3.org/2000/svg" width="48px" height="48px" viewBox="0 0 480 480" preserveAspectRatio="xMidYMid meet">
<g id="layer101" fill="#ffffff" stroke="none">
 <path d="M0 290 l0 -190 68 0 68 0 49 -50 c27 -27 56 -50 65 -50 9 0 38 22 65 50 48 49 51 50 107 50 l58 0 0 190 0 190 -240 0 -240 0 0 -190z m42 -43 c2 -59 0 -107 -4 -107 -5 0 -7 71 -6 158 2 160 6 142 10 -51z m72 101 c19 -35 39 -87 44 -115 l9 -53 -48 0 -49 0 0 115 c0 63 2 115 5 115 2 0 20 -28 39 -62z m124 50 c-7 -20 -104 -23 -111 -3 -5 12 4 15 54 15 44 0 60 -3 57 -12z m74 -20 c2 -25 8 -34 26 -36 12 -2 20 -8 17 -13 -13 -20 6 -49 33 -49 26 0 27 -2 27 -50 l0 -50 -111 0 -111 0 8 43 c10 57 17 73 53 135 35 60 53 66 58 20z m100 -13 c2 -31 -1 -45 -9 -45 -9 0 -13 16 -13 45 0 25 4 45 9 45 5 0 11 -20 13 -45z m-220 -50 c-5 -29 -5 -29 -21 3 -10 19 -9 22 7 22 15 0 18 -5 14 -25z m90 -247 l-32 -33 -32 33 -33 32 65 0 65 0 -33 -32z"/>
 </g>

</svg>