<!DOCTYPE svg PUBLIC "-//W3C//DTD SVG 20010904//EN" "http://www.w3.org/TR/2001/REC-SVG-20010904/DTD/svg10.dtd">
<svg version="1.0" xmlns="http://www.w3.org/2000/svg" width="48px" height="48px" viewBox="0 0 480 480" preserveAspectRatio="xMidYMid meet">
<g id="layer101" fill="#ffffff" stroke="none">
 <path d="M44 447 c32 -42 32 -47 3 -47 -13 0 -28 -5 -35 -12 -17 -17 -15 -110 3 -134 10 -13 14 -46 15 -115 0 -141 -3 -139 209 -139 207 0 201 -4 201 128 0 74 4 98 20 124 27 45 28 123 1 138 -11 5 -29 10 -40 10 -29 0 -26 13 10 49 l31 31 -222 0 -221 0 25 -33z m316 -46 c0 -38 -11 -41 -126 -41 -63 0 -114 4 -114 9 0 5 -3 16 -6 25 -5 14 9 16 120 16 70 0 126 -4 126 -9z m68 -133 c-4 -10 -53 -14 -190 -16 -159 -2 -187 0 -192 13 -5 13 19 15 190 15 152 0 195 -3 192 -12z m-335 -74 c-8 -20 17 -36 34 -22 10 8 10 14 2 24 -9 12 -4 14 30 14 30 0 41 -4 41 -15 0 -8 -4 -15 -9 -15 -5 0 -14 -13 -21 -30 -10 -24 -10 -36 0 -60 7 -16 16 -30 21 -30 5 0 9 -7 9 -15 0 -12 -13 -15 -60 -15 -73 0 -80 10 -80 109 0 64 2 71 20 71 14 0 18 -5 13 -16z m315 -66 c-1 -46 -3 -66 -5 -45 -4 36 -5 37 -44 37 -39 0 -39 0 -39 -39 0 -39 1 -40 38 -44 25 -2 16 -4 -25 -5 -35 -1 -63 1 -63 4 0 3 9 17 20 31 11 14 20 38 20 53 0 15 -9 39 -20 53 -11 14 -20 28 -20 31 0 3 32 6 70 6 l70 0 -2 -82z m-134 10 c15 -24 -3 -52 -37 -56 -33 -4 -53 28 -37 59 14 25 58 23 74 -3z"/>
 </g>

</svg>