<!DOCTYPE svg PUBLIC "-//W3C//DTD SVG 20010904//EN" "http://www.w3.org/TR/2001/REC-SVG-20010904/DTD/svg10.dtd">
<svg version="1.0" xmlns="http://www.w3.org/2000/svg" width="47px" height="45px" viewBox="0 0 470 450" preserveAspectRatio="xMidYMid meet">
<g id="layer101" fill="#ffffff" stroke="none">
 <path d="M150 440 c0 -6 -26 -10 -58 -10 -77 0 -92 -15 -92 -97 0 -76 16 -93 89 -93 32 0 58 -6 67 -14 18 -18 18 -36 1 -36 -33 0 -47 -35 -47 -113 l0 -77 135 0 135 0 0 79 c0 81 -12 111 -46 111 -8 0 -14 5 -14 11 0 23 30 39 73 39 61 0 77 20 77 97 0 75 -16 93 -83 93 -26 0 -47 5 -47 10 0 6 -38 10 -95 10 -57 0 -95 -4 -95 -10z m160 -105 l0 -85 -65 0 -65 0 0 85 0 85 65 0 65 0 0 -85z m-160 0 l0 -65 -47 0 c-56 0 -83 21 -83 63 0 47 25 67 82 67 l48 0 0 -65z m284 49 c21 -20 20 -73 -1 -96 -10 -11 -30 -18 -55 -18 l-38 0 0 65 0 65 39 0 c23 0 46 -7 55 -16z m-144 -179 c0 -11 -12 -15 -45 -15 -33 0 -45 4 -45 15 0 11 12 15 45 15 33 0 45 -4 45 -15z m58 -112 l3 -63 -106 0 -105 0 2 63 2 62 3 -57 c3 -42 8 -58 18 -58 19 0 21 106 3 114 -7 2 30 4 82 3 l95 -2 3 -62z"/>
 <path d="M190 366 c0 -7 5 -27 11 -45 9 -26 16 -31 44 -31 28 0 35 5 44 31 15 43 14 59 -3 59 -8 0 -19 -13 -25 -30 -5 -16 -13 -30 -16 -30 -3 0 -11 14 -16 30 -11 30 -39 42 -39 16z"/>
 <path d="M47 372 c-22 -24 -21 -55 1 -75 37 -34 92 -11 92 38 0 50 -60 73 -93 37z m61 -35 c4 -22 -27 -35 -38 -16 -10 15 7 42 24 36 6 -2 12 -11 14 -20z"/>
 <path d="M350 335 c0 -35 0 -35 45 -35 45 0 45 0 45 35 0 35 0 35 -45 35 -45 0 -45 0 -45 -35z"/>
 <path d="M190 95 c0 -42 3 -55 15 -55 12 0 15 13 15 55 0 42 -3 55 -15 55 -12 0 -15 -13 -15 -55z"/>
 <path d="M230 95 c0 -42 3 -55 15 -55 12 0 15 13 15 55 0 42 -3 55 -15 55 -12 0 -15 -13 -15 -55z"/>
 <path d="M270 95 c0 -42 3 -55 15 -55 12 0 15 13 15 55 0 42 -3 55 -15 55 -12 0 -15 -13 -15 -55z"/>
 <path d="M310 95 c0 -42 3 -55 15 -55 12 0 15 13 15 55 0 42 -3 55 -15 55 -12 0 -15 -13 -15 -55z"/>
 </g>

</svg>