<!DOCTYPE svg PUBLIC "-//W3C//DTD SVG 20010904//EN" "http://www.w3.org/TR/2001/REC-SVG-20010904/DTD/svg10.dtd">
<svg version="1.0" xmlns="http://www.w3.org/2000/svg" width="32px" height="26px" viewBox="0 0 320 260" preserveAspectRatio="xMidYMid meet">
<g id="layer101" fill="#515f67" stroke="none">
 <path d="M20 242 l-22 -18 22 -37 c21 -35 21 -41 10 -83 -12 -41 -11 -48 7 -72 24 -33 56 -39 89 -18 45 30 28 125 -37 207 -35 44 -39 46 -69 21z"/>
 <path d="M185 240 c-17 -18 -16 -21 5 -56 20 -32 22 -41 12 -68 -17 -47 -15 -73 8 -96 43 -43 110 -10 110 52 0 39 -29 104 -66 153 -30 40 -44 43 -69 15z"/>
 </g>

</svg>